<svg width="86" height="40" viewBox="0 0 86 40" fill="none" xmlns="http://www.w3.org/2000/svg">
<path d="M36.5862 31.6597H30.1504L34.1758 6.76953H40.6113L36.5862 31.6597Z" fill="#151515"/>
<path d="M59.915 7.37803C58.6456 6.87441 56.6322 6.31836 54.1426 6.31836C47.7871 6.31836 43.3115 9.70748 43.2841 14.5529C43.2313 18.1278 46.4884 20.1134 48.9245 21.3054C51.4144 22.5235 52.2608 23.3185 52.2608 24.4042C52.2355 26.0717 50.2488 26.8403 48.3959 26.8403C45.8264 26.8403 44.4497 26.444 42.3574 25.5163L41.51 25.1186L40.6094 30.7059C42.1188 31.3936 44.8998 32.0039 47.7871 32.0306C54.54 32.0306 58.9363 28.6939 58.9884 23.5304C59.0141 20.697 57.2942 18.5259 53.5862 16.7518C51.3353 15.6129 49.9567 14.845 49.9567 13.6798C49.9831 12.6204 51.1227 11.5354 53.6636 11.5354C55.7559 11.4823 57.2931 11.9852 58.4577 12.4885L59.0398 12.7528L59.915 7.37803Z" fill="#151515"/>
<path fill-rule="evenodd" clip-rule="evenodd" d="M71.4351 6.76953H76.4132L81.6052 31.6593H75.6463C75.6463 31.6593 75.0632 28.7995 74.8784 27.9257H66.6153C66.3764 28.5873 65.2646 31.6593 65.2646 31.6593H58.5117L68.0713 8.83468C68.7336 7.2193 69.8999 6.76953 71.4351 6.76953ZM71.0384 15.8779C71.0384 15.8779 68.999 21.4121 68.469 22.842H73.8184C73.5537 21.5975 72.335 15.6397 72.335 15.6397L71.8852 13.495C71.6958 14.0473 71.4219 14.8066 71.2371 15.3187C71.1119 15.6658 71.0276 15.8994 71.0384 15.8779Z" fill="#151515"/>
<path d="M24.7742 6.76953L18.4714 23.7422L17.7827 20.3C16.6174 16.328 12.963 12.0126 8.88477 9.8669L14.6579 31.6333H21.4636L31.5795 6.76953H24.7742V6.76953Z" fill="#151515"/>
<path d="M12.6187 6.76953H2.26414L2.1582 7.27244C10.2354 9.33794 15.5848 14.3167 17.7826 20.301L15.5317 8.86178C15.1611 7.27209 14.0222 6.82197 12.6187 6.76953Z" fill="#151515"/>
<path opacity="0.01" fill-rule="evenodd" clip-rule="evenodd" d="M0 0H86V40H0V0Z" fill="white"/>
</svg>
