<svg width="120" height="40" viewBox="0 0 120 40" fill="none" xmlns="http://www.w3.org/2000/svg">
<path fill-rule="evenodd" clip-rule="evenodd" d="M45.7388 12.0957H39.5616C39.1391 12.0954 38.7793 12.4028 38.7135 12.8201L36.2152 28.66C36.1919 28.8087 36.235 28.9602 36.3329 29.0745C36.4309 29.1888 36.574 29.2545 36.7246 29.2543H39.6736C40.0964 29.2545 40.4563 28.9467 40.5217 28.529L41.1955 24.2567C41.2609 23.8394 41.6203 23.5317 42.0428 23.5314H43.9983C48.0673 23.5314 50.4157 21.5624 51.029 17.6605C51.3054 15.9534 51.0407 14.6121 50.2414 13.6727C49.3634 12.6413 47.8063 12.0957 45.7388 12.0957ZM46.4514 17.8809C46.1136 20.0974 44.4201 20.0974 42.7825 20.0974H41.8504L42.5043 15.9579C42.5439 15.7077 42.7595 15.5234 43.0128 15.5234H43.4401C44.5555 15.5234 45.6078 15.5234 46.1515 16.1593C46.4758 16.5387 46.5752 17.1023 46.4514 17.8809ZM61.2454 17.8095H64.2034C64.3537 17.8095 64.4965 17.8753 64.594 17.9897C64.6915 18.1041 64.7339 18.2554 64.7101 18.4038L63.1114 28.5281C63.046 28.9458 62.6861 29.2536 62.2633 29.2534H59.5988C59.4482 29.2532 59.3052 29.187 59.2076 29.0723C59.1099 28.9577 59.0674 28.806 59.0912 28.6573L59.223 27.8353C59.223 27.8353 57.7625 29.5289 55.1287 29.5289C53.5941 29.5289 52.3043 29.0863 51.4029 28.0241C50.4202 26.8689 50.0183 25.2123 50.301 23.48C50.8447 20.0071 53.6366 17.5313 56.9054 17.5313C58.3306 17.5313 59.7586 17.842 60.399 18.7714L60.6059 19.0713L60.7368 18.244C60.7764 17.9938 60.9921 17.8095 61.2454 17.8095ZM60.0802 23.5667C59.7948 25.2566 58.4535 26.3911 56.7428 26.3911C55.8838 26.3911 55.1974 26.1156 54.7566 25.5935C54.3194 25.0751 54.1532 24.3371 54.2923 23.5152C54.5588 21.8397 55.9226 20.6682 57.6072 20.6682C58.4472 20.6682 59.13 20.9473 59.5798 21.4739C60.0305 22.0059 60.2094 22.7483 60.0802 23.5667ZM76.985 17.8095H79.9575C80.149 17.8096 80.3247 17.916 80.4135 18.0858C80.5022 18.2555 80.4894 18.4605 80.3802 18.6179L70.4935 32.8889C70.3331 33.12 70.0694 33.2578 69.7881 33.2574H66.8192C66.6265 33.2575 66.45 33.15 66.3615 32.9789C66.2731 32.8077 66.2876 32.6015 66.3992 32.4445L69.4774 28.0991L66.2032 18.4905C66.1495 18.3331 66.1751 18.1594 66.2721 18.0242C66.3691 17.889 66.5254 17.8091 66.6918 17.8095H69.6128C69.9924 17.8097 70.3271 18.0585 70.4366 18.4219L72.1744 24.2251L76.2741 18.1862C76.4343 17.9509 76.7004 17.81 76.985 17.8095Z" fill="#151515"/>
<path fill-rule="evenodd" clip-rule="evenodd" d="M109.215 28.6609L111.751 12.5311C111.79 12.281 112.005 12.0966 112.258 12.0957H115.112C115.263 12.096 115.406 12.162 115.503 12.2765C115.601 12.3909 115.643 12.5423 115.62 12.6909L113.12 28.5299C113.055 28.9481 112.695 29.2552 112.272 29.2552H109.723C109.572 29.2552 109.43 29.1894 109.332 29.075C109.234 28.9607 109.192 28.8094 109.215 28.6609ZM89.7995 12.0966H83.6214C83.1993 12.0968 82.8399 12.404 82.7742 12.821L80.2759 28.6609C80.2523 28.8094 80.295 28.9607 80.3927 29.075C80.4903 29.1894 80.6331 29.2552 80.7835 29.2552H83.9538C84.2493 29.2548 84.5005 29.0395 84.5463 28.7476L85.2553 24.2576C85.3207 23.8403 85.6801 23.5326 86.1026 23.5323H88.0572C92.1271 23.5323 94.4746 21.5633 95.0888 17.6614C95.3661 15.9543 95.0996 14.613 94.3002 13.6736C93.4232 12.6422 91.867 12.0966 89.7995 12.0966ZM90.5121 17.8818C90.1752 20.0983 88.4817 20.0983 86.8432 20.0983H85.912L86.5668 15.9588C86.6056 15.7085 86.8212 15.524 87.0744 15.5243H87.5017C88.6162 15.5243 89.6694 15.5243 90.2132 16.1602C90.5374 16.5396 90.6359 17.1032 90.5121 17.8818ZM105.307 17.8104H108.263C108.414 17.8102 108.557 17.8759 108.655 17.9902C108.753 18.1044 108.796 18.2559 108.774 18.4047L107.174 28.529C107.109 28.9463 106.749 29.254 106.327 29.2543H103.663C103.512 29.2546 103.369 29.1887 103.271 29.0739C103.173 28.9592 103.13 28.8072 103.154 28.6582L103.286 27.8362C103.286 27.8362 101.825 29.5298 99.1912 29.5298C97.6566 29.5298 96.3686 29.0872 95.4654 28.025C94.4827 26.8698 94.0826 25.2133 94.3644 23.4809C94.9081 20.008 97.6991 17.5322 100.968 17.5322C102.393 17.5322 103.82 17.8429 104.461 18.7723L104.668 19.0722L104.799 18.2449C104.838 17.9944 105.054 17.8097 105.307 17.8104ZM104.14 23.5676C103.856 25.2575 102.513 26.392 100.803 26.392C99.9454 26.392 99.2572 26.1165 98.8164 25.5944C98.3792 25.076 98.2148 24.338 98.3521 23.5161C98.6204 21.8406 99.9824 20.6691 101.667 20.6691C102.507 20.6691 103.19 20.9482 103.64 21.4748C104.092 22.0068 104.271 22.7493 104.14 23.5676Z" fill="#151515"/>
<path d="M10.5635 32.3335L11.0359 29.333L9.98363 29.3086H4.95898L8.45086 7.16785C8.47234 7.02803 8.59301 6.92504 8.73447 6.92579H17.2067C20.0194 6.92579 21.9604 7.51108 22.9738 8.6663C23.4489 9.20824 23.7515 9.77456 23.8978 10.3978C24.0514 11.0517 24.0541 11.833 23.9041 12.7859L23.8933 12.8555V13.466L24.3684 13.7352C24.7311 13.919 25.0571 14.1675 25.3303 14.4686C25.7368 14.932 25.9996 15.5209 26.1107 16.2191C26.2254 16.9371 26.1875 17.7916 25.9996 18.7589C25.7829 19.8717 25.4324 20.8409 24.9591 21.6339C24.5415 22.3443 23.9801 22.9597 23.3107 23.4404C22.6821 23.8866 21.9351 24.2253 21.0906 24.442C20.2723 24.6552 19.3392 24.7627 18.3159 24.7627H17.6565C17.185 24.7627 16.7271 24.9325 16.3676 25.2369C16.0087 25.5445 15.7705 25.9696 15.6956 26.4364L15.646 26.7064L14.8114 31.9948L14.7734 32.189C14.7635 32.2504 14.7463 32.2811 14.721 32.3019C14.6966 32.3219 14.666 32.3331 14.6343 32.3335H10.5635Z" fill="#253B80"/>
<path d="M24.8179 12.9258C24.7926 13.0875 24.7637 13.2527 24.7312 13.4226C23.6139 19.1589 19.7915 21.1406 14.9095 21.1406H12.4239C11.8268 21.1406 11.3237 21.5742 11.2307 22.1631L9.95805 30.2343L9.59766 32.5222C9.5686 32.7058 9.6214 32.893 9.74213 33.0344C9.86287 33.1758 10.0395 33.2573 10.2254 33.2574H14.634C15.1561 33.2574 15.5996 32.878 15.6818 32.3632L15.7251 32.1392L16.5552 26.8716L16.6085 26.5826C16.6898 26.0659 17.1342 25.6866 17.6562 25.6866H18.3156C22.5869 25.6866 25.9307 23.9524 26.908 18.934C27.3162 16.8377 27.1049 15.0872 26.0246 13.8561C25.6822 13.4753 25.2733 13.16 24.8179 12.9258V12.9258Z" fill="#636363"/>
<path d="M23.6489 12.458C23.2922 12.3548 22.9293 12.2742 22.5623 12.2168C21.8373 12.1054 21.1046 12.052 20.3711 12.057H13.7306C13.2084 12.0566 12.764 12.437 12.6838 12.953L11.2711 21.9003L11.2305 22.1613C11.3214 21.5728 11.8281 21.1386 12.4236 21.1389H14.9093C19.7912 21.1389 23.6137 19.1563 24.731 13.4208C24.7644 13.251 24.7924 13.0857 24.8177 12.9241C24.5229 12.7695 24.2156 12.6398 23.8991 12.5366C23.8161 12.509 23.7327 12.4828 23.6489 12.458Z" fill="#393939"/>
<path d="M12.6835 12.9539C12.7631 12.4377 13.2081 12.0572 13.7304 12.0588H20.3709C21.1576 12.0588 21.8919 12.1103 22.5621 12.2187C23.0156 12.29 23.4629 12.3966 23.8998 12.5375C24.2295 12.6468 24.5357 12.776 24.8184 12.925C25.1508 10.8052 24.8157 9.36181 23.6695 8.05484C22.4059 6.616 20.1252 6 17.2069 6H8.73463C8.1385 6 7.62999 6.43355 7.53786 7.02335L4.00896 29.3917C3.97569 29.6019 4.03604 29.8161 4.17414 29.978C4.31223 30.1399 4.51424 30.2333 4.72702 30.2335H9.9576L11.2709 21.9013L12.6835 12.9539Z" fill="#151515"/>
<path opacity="0.01" fill-rule="evenodd" clip-rule="evenodd" d="M0 0H120V40H0V0Z" fill="white"/>
</svg>
