<svg width="60" height="60" viewBox="0 0 60 60" fill="none" xmlns="http://www.w3.org/2000/svg">
<path fill-rule="evenodd" clip-rule="evenodd" d="M27.6528 41.7275H33.0365V33.1361C33.0365 30.871 33.4669 28.6774 36.2705 28.6774C39.0335 28.6774 39.0704 31.2677 39.0704 33.2817V41.7275H44.4551V32.2013C44.4551 27.5257 43.448 23.9285 37.9913 23.9285C35.3699 23.9285 33.6122 25.368 32.893 26.7335H32.8206V24.3604H27.6528V41.7275ZM21.5799 15.7275C23.3024 15.7275 24.7026 17.1299 24.7026 18.8562C24.7026 20.5838 23.3024 21.9864 21.5799 21.9864C19.8527 21.9864 18.4551 20.5838 18.4551 18.8562C18.4551 17.1299 19.8527 15.7275 21.5799 15.7275ZM18.8842 41.7275H24.2727V24.3604H18.8842V41.7275Z" fill="white"/>
</svg>
