<svg width="60" height="60" viewBox="0 0 60 60" fill="none" xmlns="http://www.w3.org/2000/svg">
<path fill-rule="evenodd" clip-rule="evenodd" d="M39.8927 23.5898V27.1925H36.1943V29.715H39.8927V33.3195H42.6658V29.715H46.3633V27.1024H42.6658V23.5898H39.8927ZM23.6238 26.382V30.4361H29.17C28.8002 32.7784 26.6742 34.4901 23.6238 34.4901C20.296 34.4901 17.5229 31.6973 17.5229 28.4541C17.5229 25.2109 20.2036 22.4181 23.6238 22.4181C25.1952 22.4181 26.4893 22.8685 27.5985 23.9496L30.5565 21.0667C28.7078 19.4451 26.3969 18.4541 23.6238 18.4541C17.9851 18.4541 13.3633 22.9586 13.3633 28.4541C13.3633 33.9496 17.9851 38.4541 23.6238 38.4541C29.6321 38.4541 33.5145 34.31 33.5145 28.6343C33.5145 27.9136 33.422 27.1027 33.3296 26.382H23.6238Z" fill="white"/>
</svg>
