<svg width="60" height="60" viewBox="0 0 60 60" fill="none" xmlns="http://www.w3.org/2000/svg">
<path fill-rule="evenodd" clip-rule="evenodd" d="M25.8976 41.4541C36.464 41.4541 42.2424 32.6061 42.2424 24.9339C42.2424 24.6825 42.2374 24.4323 42.2259 24.1832C43.3475 23.3638 44.3226 22.3412 45.0918 21.1769C44.0624 21.6391 42.9547 21.9506 41.7927 22.091C42.9787 21.3723 43.8894 20.2349 44.3188 18.8792C43.2086 19.5442 41.9797 20.0281 40.6712 20.2885C39.6228 19.1599 38.13 18.4541 36.4779 18.4541C33.3053 18.4541 30.7324 21.0545 30.7324 24.2599C30.7324 24.7156 30.7829 25.1587 30.8815 25.5838C26.1072 25.3412 21.8735 23.0306 19.0406 19.5174C18.5468 20.3752 18.2625 21.3723 18.2625 22.4357C18.2625 24.4502 19.2768 26.2285 20.8189 27.2688C19.8767 27.2395 18.9913 26.9777 18.2171 26.5425C18.2158 26.5667 18.2158 26.5909 18.2158 26.6164C18.2158 29.4288 20.1963 31.7764 22.8246 32.3088C22.3421 32.4414 21.8344 32.513 21.3103 32.513C20.9402 32.513 20.5803 32.476 20.2304 32.4083C20.9616 34.7151 23.0823 36.3938 25.597 36.4411C23.6305 37.9984 21.1537 38.9265 18.4621 38.9265C17.9987 38.9265 17.5414 38.8997 17.0918 38.846C19.6342 40.4929 22.6528 41.4541 25.8976 41.4541Z" fill="white"/>
</svg>
