<svg width="100" height="100" viewBox="0 0 100 100" fill="none" xmlns="http://www.w3.org/2000/svg">
<rect opacity="0.01" width="100" height="100" fill="white"/>
<path fill-rule="evenodd" clip-rule="evenodd" d="M77.6325 41.9171L86.373 31.6659C86.9079 31.0749 87.1288 30.2642 86.9676 29.4835C86.8065 28.7028 86.2827 28.0458 85.5576 27.7148L60.3271 15.2426C60.0795 15.1202 59.7796 15.2216 59.6572 15.4692C59.5347 15.7167 59.6362 16.0167 59.8837 16.1391L85.1318 28.6196C85.5728 28.8167 85.8918 29.2142 85.9888 29.6874C86.0858 30.1606 85.9489 30.6516 85.621 31.0063L76.7616 41.3967L64.8447 34.4507C64.606 34.3115 64.2997 34.3922 64.1606 34.6308C64.0214 34.8695 64.1021 35.1758 64.3408 35.3149L75.8151 42.0029L49.664 54.4926L23.5355 42.0133L34.5293 35.9067C34.6867 35.8205 34.7859 35.6565 34.7891 35.4771C34.7924 35.2976 34.6992 35.1302 34.545 35.0383C34.3908 34.9465 34.1992 34.9443 34.0429 35.0327L22.8087 41.2728L14.0869 31.1123C13.758 30.757 13.6206 30.265 13.7179 29.7908C13.8151 29.3166 14.135 28.9183 14.5771 28.7211L39.1347 16.1357C39.2947 16.0547 39.3991 15.8942 39.4082 15.715C39.4174 15.5359 39.3299 15.3656 39.179 15.2687C39.028 15.1718 38.8368 15.1632 38.6777 15.246L14.1386 27.8222C13.4152 28.157 12.8947 28.8164 12.7371 29.5978C12.5795 30.3791 12.8037 31.1888 13.3408 31.7778L21.8795 41.7267L13.2871 49.8227C12.7046 50.3711 12.4199 51.1651 12.5211 51.9587C12.6223 52.7522 13.0973 53.4493 13.7988 53.8339L21.9453 58.3591V72.8183C21.9482 73.7805 22.5003 74.6565 23.3671 75.0742L48.5869 87.1191C49.2681 87.4459 50.0609 87.4459 50.7421 87.1191L75.9619 75.0742C76.8287 74.6565 77.3808 73.7805 77.3837 72.8183V58.1523L85.4237 53.7572C86.1265 53.3735 86.6029 52.6763 86.7049 51.8821C86.807 51.0879 86.5223 50.2929 85.9394 49.744L77.6325 41.9171ZM13.5136 51.8339C13.4495 51.3569 13.6206 50.8785 13.9726 50.5502L22.4213 42.5896L48.6235 55.1041L38.1162 65.0029C37.6454 65.4486 36.9409 65.5399 36.372 65.229L14.2812 52.9579C13.8584 52.7297 13.5723 52.3108 13.5136 51.8339ZM22.9453 72.8183C22.947 73.3957 23.2785 73.9214 23.7988 74.1718L49.0185 86.2168C49.0661 86.2361 49.1147 86.253 49.164 86.2673V55.9682L38.8017 65.7304C38.0152 66.474 36.8387 66.6253 35.8896 66.1049L22.9453 58.9146V72.8183ZM76.3838 72.8183C76.3821 73.3957 76.0506 73.9214 75.5303 74.1718L50.3105 86.2168C50.2626 86.2363 50.2137 86.2533 50.164 86.2677V56.5377L59.9218 65.7304C60.7088 66.4747 61.8862 66.626 62.8359 66.1049L76.3837 58.699L76.3838 72.8183ZM84.9443 52.8793C85.3678 52.651 85.6546 52.2318 85.7139 51.7543C85.777 51.2777 85.6057 50.7999 85.2539 50.4721L76.895 42.5957L50.3034 55.2957L60.6074 65.0029C61.0799 65.4493 61.7866 65.5399 62.3564 65.227L84.9443 52.8793Z" fill="black"/>
<path d="M48.3118 37.7559C48.8971 38.3242 49.8282 38.3242 50.4134 37.7559L58.5755 29.75C58.7713 29.5561 58.7735 29.2405 58.5804 29.0439C58.3873 28.8473 58.0717 28.8439 57.8743 29.0361L49.8626 36.8945V12.5C49.8626 12.2239 49.6388 12 49.3626 12C49.0865 12 48.8626 12.2239 48.8626 12.5V36.8955L40.8499 29.0361C40.7224 28.9109 40.5378 28.8632 40.3655 28.911C40.1933 28.9588 40.0597 29.0949 40.0149 29.2679C39.9702 29.441 40.0212 29.6247 40.1488 29.75L48.3118 37.7559Z" fill="black"/>
</svg>
